<svg width="33" height="32" viewBox="0 0 33 32" fill="none" xmlns="http://www.w3.org/2000/svg">
<path fill-rule="evenodd" clip-rule="evenodd" d="M16.6 32C25.4366 32 32.6 24.8366 32.6 16C32.6 7.16344 25.4366 0 16.6 0C7.76345 0 0.600006 7.16344 0.600006 16C0.600006 24.8366 7.76345 32 16.6 32Z" fill="#3C5997" fill-opacity="0.12"/>
<path fill-rule="evenodd" clip-rule="evenodd" d="M19.3538 16.3148C19.3538 14.8938 20.558 14.2396 20.558 14.2396C20.558 14.2396 19.7688 13.0437 18.5344 13.0437C17.6187 13.0437 17.1329 13.5802 16.5155 13.5802C15.782 13.5802 15.4025 13.0437 14.4915 13.0437C13.4545 13.0437 11.8 13.9792 11.8 16.3148C11.8 18.5635 13.4342 21.3286 14.6992 21.3286C15.3619 21.3286 15.6555 20.8942 16.5255 20.8942C17.5276 20.8942 17.5781 21.3286 18.3319 21.3286C19.6725 21.3286 20.8667 18.492 20.8667 18.492C20.8667 18.492 19.3538 18.0013 19.3538 16.3148ZM18.3238 10.6625C17.383 10.7392 16.0472 11.7206 16.2294 13.1773C17.4689 13.2231 18.506 11.8073 18.3238 10.6625Z" fill="#3C5997"/>
</svg>
