<svg width="19" height="15" viewBox="0 0 19 15" fill="none" xmlns="http://www.w3.org/2000/svg">
<path d="M1.10934 7.93364C0.963554 7.66343 0.963554 7.33564 1.10934 7.06543C2.8662 3.81636 6.11155 1 9.35691 1C12.6023 1 15.8476 3.81636 17.6045 7.06636C17.7503 7.33657 17.7503 7.66436 17.6045 7.93457C15.8476 11.1836 12.6023 14 9.35691 14C6.11155 14 2.8662 11.1836 1.10934 7.93364Z" stroke="#9C9C9C" stroke-width="1.4286" stroke-linecap="round" stroke-linejoin="round"/>
<path d="M11.3267 5.5302C12.4146 6.61809 12.4146 8.38191 11.3267 9.4698C10.2388 10.5577 8.47498 10.5577 7.3871 9.4698C6.29921 8.38191 6.29921 6.61809 7.3871 5.5302C8.47498 4.44232 10.2388 4.44232 11.3267 5.5302Z" stroke="#9C9C9C" stroke-width="1.4286" stroke-linecap="round" stroke-linejoin="round"/>
</svg>
