<svg width="32" height="32" viewBox="0 0 32 32" fill="none" xmlns="http://www.w3.org/2000/svg">
<path fill-rule="evenodd" clip-rule="evenodd" d="M16 32C24.8366 32 32 24.8366 32 16C32 7.16344 24.8366 0 16 0C7.16344 0 0 7.16344 0 16C0 24.8366 7.16344 32 16 32Z" fill="#3C5997" fill-opacity="0.12"/>
<path fill-rule="evenodd" clip-rule="evenodd" d="M19.6116 11.3267C19.1338 11.3267 18.7457 11.7142 18.7457 12.1934C18.7457 12.6719 19.1338 13.06 19.6116 13.06C20.0901 13.06 20.4782 12.6719 20.4782 12.1934C20.4782 11.7142 20.0901 11.3267 19.6116 11.3267ZM15.9999 18.3831C14.6869 18.3831 13.6181 17.3141 13.6181 15.9997C13.6181 14.686 14.6869 13.6177 15.9999 13.6177C17.3136 13.6177 18.3824 14.686 18.3824 15.9997C18.3824 17.3141 17.3136 18.3831 15.9999 18.3831ZM15.9999 12.2765C13.948 12.2765 12.2782 13.9469 12.2782 15.9997C12.2782 18.0531 13.948 19.7236 15.9999 19.7236C18.0526 19.7236 19.7223 18.0531 19.7223 15.9997C19.7223 13.9469 18.0526 12.2765 15.9999 12.2765ZM21.8436 18.0341C21.837 18.4825 21.8194 18.961 21.7349 19.414C21.5058 20.6465 20.8061 21.396 19.5966 21.7056C19.0409 21.8477 18.4492 21.8523 17.8234 21.8562H17.8169C17.5125 21.8582 17.2003 21.8588 16.8626 21.8588C16.013 21.8588 15.1477 21.8529 14.3099 21.8464L13.7476 21.8424C13.3339 21.8392 12.8483 21.8202 12.3796 21.7011C11.4633 21.468 10.8402 20.9548 10.4736 20.132C10.2419 19.609 10.1896 19.031 10.1693 18.5342C10.1647 18.4269 10.1568 18.3254 10.1483 18.2272L10.1405 18.129V13.9195C10.149 13.8769 10.1594 13.8174 10.1614 13.7486C10.1758 13.2557 10.1961 12.8132 10.3021 12.3904C10.5371 11.457 11.0607 10.8259 11.9038 10.4613C12.4163 10.2394 12.9831 10.1897 13.4701 10.1694C13.5774 10.1648 13.6795 10.1563 13.7777 10.1485L13.8752 10.1406H18.0872C18.1219 10.1478 18.1657 10.1544 18.2161 10.1589C18.3588 10.1714 18.5002 10.1799 18.6364 10.1877C18.9073 10.2041 19.1626 10.2192 19.3989 10.263C20.0181 10.3795 20.5234 10.6152 20.8991 10.9628C21.2761 11.3129 21.5464 11.7986 21.7022 12.4074C21.8416 12.9527 21.8469 13.5346 21.8527 14.1492V14.2022C21.8645 15.4898 21.8619 16.7793 21.8436 18.0341ZM23.1933 14.1905L23.1926 14.1375C23.1867 13.4691 23.1802 12.7779 23.0008 12.0749C22.5616 10.3566 21.4011 9.27462 19.6457 8.94602C19.3263 8.8858 19.016 8.86747 18.7156 8.8498C18.586 8.8426 18.4629 8.83474 18.3418 8.82427C18.3353 8.82296 18.3294 8.82165 18.3229 8.82034C18.3052 8.81772 18.2875 8.81379 18.2685 8.81052L18.2109 8.80005H13.8249L13.8007 8.80201C13.7562 8.80529 13.711 8.80856 13.6671 8.81249C13.5781 8.81969 13.4943 8.82689 13.4158 8.83016C12.8411 8.85372 12.0897 8.92049 11.3717 9.23076C10.1372 9.76489 9.34065 10.718 9.00291 12.0631C8.86677 12.6051 8.83928 13.1353 8.82291 13.6747C8.81833 13.695 8.8144 13.7146 8.81048 13.7342L8.8 13.7925V18.1795L8.80197 18.2037C8.80524 18.2488 8.80917 18.2934 8.81309 18.3379C8.82029 18.4262 8.82684 18.5094 8.83011 18.5886C8.85368 19.1757 8.92371 19.9429 9.24967 20.6767C9.78574 21.8824 10.7283 22.6646 12.0498 22.9997C12.6611 23.1555 13.2725 23.1791 13.7372 23.183L14.3001 23.187C15.1398 23.1928 16.0078 23.2 16.8626 23.2C17.2036 23.2 17.5184 23.1987 17.8254 23.1968H17.832C18.5114 23.1922 19.2143 23.1876 19.9284 23.0043C21.6466 22.5645 22.7272 21.4078 23.0525 19.6595C23.1553 19.1057 23.1763 18.5369 23.1835 18.0531C23.2011 16.7878 23.205 15.4885 23.1933 14.1905Z" fill="#3C5997"/>
</svg>
