<svg width="20" height="20" viewBox="0 0 20 20" fill="none" xmlns="http://www.w3.org/2000/svg">
<circle opacity="0.6" cx="10" cy="10" r="9.75" stroke="white" stroke-width="0.5"/>
<path d="M11.4954 12.9897C11.5206 12.9897 11.5455 12.9846 11.5687 12.9748C11.5919 12.9649 11.6129 12.9505 11.6304 12.9323L14.39 10.0707C14.4237 10.0358 14.4426 9.98922 14.4426 9.94071C14.4426 9.89221 14.4237 9.84561 14.39 9.81078L11.6184 6.93753C11.6016 6.91874 11.5812 6.90353 11.5584 6.89281C11.5355 6.88209 11.5108 6.87608 11.4856 6.87513C11.4604 6.87419 11.4353 6.87833 11.4118 6.88731C11.3882 6.89629 11.3667 6.90993 11.3486 6.92741C11.3304 6.94489 11.316 6.96584 11.3061 6.98903C11.2962 7.01222 11.2911 7.03716 11.2911 7.06236C11.2911 7.08757 11.2961 7.11252 11.306 7.13572C11.3158 7.15892 11.3302 7.1799 11.3484 7.1974L13.9944 9.94053L11.3604 12.672C11.3348 12.6985 11.3177 12.7319 11.311 12.7681C11.3043 12.8043 11.3084 12.8416 11.3228 12.8755C11.3372 12.9094 11.3612 12.9382 11.3919 12.9585C11.4226 12.9788 11.4586 12.9897 11.4954 12.9897Z" fill="white"/>
<path d="M5.1875 10.1281H14.255C14.3047 10.1281 14.3524 10.1083 14.3876 10.0731C14.4227 10.038 14.4425 9.99028 14.4425 9.94055C14.4425 9.89082 14.4227 9.84313 14.3876 9.80797C14.3524 9.77281 14.3047 9.75305 14.255 9.75305H5.1875C5.13777 9.75305 5.09008 9.77281 5.05492 9.80797C5.01975 9.84313 5 9.89082 5 9.94055C5 9.99028 5.01975 10.038 5.05492 10.0731C5.09008 10.1083 5.13777 10.1281 5.1875 10.1281Z" fill="white"/>
</svg>
