<svg width="12" height="24" viewBox="0 0 12 24" fill="none" xmlns="http://www.w3.org/2000/svg">
<path d="M2.50931 5.60053C2.12765 5.49962 0.541627 5.86125 0.0921125 7.61037C-0.391328 9.47723 1.16926 10.8984 2.34818 10.7218C0.787596 8.7288 3.07756 6.79465 4.477 7.92149C5.58806 8.81287 4.88411 10.4106 4.88411 10.4106C5.5711 10.0154 7.00446 10.5368 7.00446 12C7.00446 13.4632 5.5711 13.9846 4.88411 13.5893C4.88411 13.5893 5.59654 15.1871 4.477 16.0785C3.07756 17.2053 0.787596 15.2712 2.34818 13.2782C1.17774 13.1016 -0.382846 14.5228 0.0921125 16.3896C0.541627 18.1388 2.12765 18.5003 2.50931 18.3994C2.15309 18.5256 -0.883258 19.7449 0.253251 24L12 12.0084L0.261741 0C-0.883249 4.25508 2.16158 5.47439 2.50931 5.60053Z" fill="#3C5997"/>
</svg>
