<svg width="32" height="32" viewBox="0 0 32 32" fill="none" xmlns="http://www.w3.org/2000/svg">
<path fill-rule="evenodd" clip-rule="evenodd" d="M16 32C24.8366 32 32 24.8366 32 16C32 7.16344 24.8366 0 16 0C7.16344 0 0 7.16344 0 16C0 24.8366 7.16344 32 16 32Z" fill="#3C5997" fill-opacity="0.12"/>
<path d="M12.4886 10.6667L16.6917 15.0438L17.9344 13.7501C15.7931 12.5389 12.9611 10.9366 12.4886 10.6667ZM11.275 10.9438C11.2297 11.0494 11.2 11.1653 11.2 11.2938V20.4074C11.2 20.5124 11.2237 20.6094 11.2583 20.7001L15.9521 15.8136L11.275 10.9438ZM18.8927 14.2928L17.4313 15.8136L18.8813 17.324C19.7714 16.82 20.3875 16.4709 20.3875 16.4709C20.6536 16.3093 20.8027 16.0606 20.799 15.7897C20.7952 15.5257 20.6414 15.2821 20.3865 15.1376C20.3518 15.1178 19.7503 14.7776 18.8927 14.2928ZM16.6917 16.5845L12.5198 20.9272C13.2382 20.5186 15.892 19.0156 17.9229 17.8657L16.6917 16.5845Z" fill="#3C5997"/>
</svg>
