<svg width="34" height="34" viewBox="0 0 34 34" fill="none" xmlns="http://www.w3.org/2000/svg">
<path d="M10.625 4.25H23.3807C26.8982 4.25 29.75 7.10175 29.75 10.6193V23.3821C29.75 26.8982 26.8982 29.75 23.3807 29.75H10.6193C7.10175 29.75 4.25 26.8982 4.25 23.3807V10.625C4.25 7.10458 7.10458 4.25 10.625 4.25V4.25Z" stroke="#9C9C9C" stroke-width="1.5" stroke-linecap="round" stroke-linejoin="round"/>
<path d="M15.136 13.6624H16.8572V22.27H16.8544C15.0821 22.27 13.1342 21.1934 11.753 19.21C9.67897 16.303 9.1123 14.1058 9.1123 13.6638" stroke="#9C9C9C" stroke-width="1.5" stroke-linecap="round" stroke-linejoin="round"/>
<path d="M23.5992 22.2699C23.5992 22.2699 22.9731 20.9496 21.7023 19.4975C20.8551 18.5044 19.6623 17.9675 18.5771 17.9675C19.6623 17.9675 20.8551 17.4292 21.7023 16.4375C22.9731 14.984 23.5992 13.6637 23.5992 13.6637" stroke="#9C9C9C" stroke-width="1.5" stroke-linecap="round" stroke-linejoin="round"/>
<path d="M18.5772 17.969H16.8545" stroke="#9C9C9C" stroke-width="1.5" stroke-linecap="round" stroke-linejoin="round"/>
</svg>
