<svg width="33" height="32" viewBox="0 0 33 32" fill="none" xmlns="http://www.w3.org/2000/svg">
<path fill-rule="evenodd" clip-rule="evenodd" d="M16.8 32C25.6366 32 32.8 24.8366 32.8 16C32.8 7.16344 25.6366 0 16.8 0C7.96345 0 0.800003 7.16344 0.800003 16C0.800003 24.8366 7.96345 32 16.8 32Z" fill="#3C5997" fill-opacity="0.12"/>
<path fill-rule="evenodd" clip-rule="evenodd" d="M22.3973 12.9709C22.9735 12.621 23.4159 12.0668 23.6244 11.4067C23.0851 11.7305 22.4879 11.9659 21.8525 12.0928C21.3436 11.5431 20.6182 11.2 19.8159 11.2C18.275 11.2 17.0257 12.4658 17.0257 14.0273C17.0257 14.2488 17.0503 14.4647 17.0979 14.6716C14.7791 14.5538 12.7225 13.4281 11.3468 11.7174C11.1066 12.135 10.9688 12.6207 10.9688 13.1388C10.9688 14.1197 11.4614 14.985 12.21 15.4922C11.7529 15.4775 11.3224 15.3506 10.9462 15.1388C10.9459 15.1505 10.9459 15.1622 10.9459 15.1742C10.9459 16.5442 11.908 17.6869 13.1842 17.9467C12.9503 18.0114 12.7037 18.046 12.449 18.046C12.2694 18.046 12.0948 18.0283 11.9241 17.9952C12.2792 19.1184 13.31 19.936 14.5307 19.9586C13.5756 20.7171 12.3727 21.1692 11.0655 21.1692C10.8404 21.1692 10.6183 21.1557 10.4 21.1292C11.6347 21.9317 13.1009 22.4 14.6772 22.4C19.8093 22.4 22.6159 18.0912 22.6159 14.3548C22.6159 14.2325 22.6133 14.1104 22.6078 13.9889C23.1528 13.5908 23.6257 13.0928 24 12.5255C23.4993 12.7505 22.9618 12.9024 22.3973 12.9709Z" fill="#3C5997"/>
</svg>
