<svg width="33" height="32" viewBox="0 0 33 32" fill="none" xmlns="http://www.w3.org/2000/svg">
<path fill-rule="evenodd" clip-rule="evenodd" d="M16.4 32C25.2366 32 32.4 24.8366 32.4 16C32.4 7.16344 25.2366 0 16.4 0C7.56344 0 0.399994 7.16344 0.399994 16C0.399994 24.8366 7.56344 32 16.4 32Z" fill="#3C5997" fill-opacity="0.12"/>
<path fill-rule="evenodd" clip-rule="evenodd" d="M24.0328 11.8434C24.1441 11.4725 24.0328 11.2 23.5035 11.2H21.7531C21.308 11.2 21.1028 11.4354 20.9916 11.695C20.9916 11.695 20.1014 13.8647 18.8404 15.274C18.4325 15.682 18.247 15.8118 18.0245 15.8118C17.9132 15.8118 17.7521 15.682 17.7521 15.3111V11.8434C17.7521 11.3983 17.623 11.2 17.2521 11.2H14.5014C14.2233 11.2 14.056 11.4065 14.056 11.6023C14.056 12.0242 14.6865 12.1215 14.7515 13.3084V15.886C14.7515 16.4512 14.6494 16.5536 14.4269 16.5536C13.8335 16.5536 12.39 14.3742 11.5339 11.8805C11.3662 11.3957 11.1979 11.2 10.7505 11.2H9.00014C8.50002 11.2 8.39999 11.4354 8.39999 11.695C8.39999 12.1586 8.99342 14.4581 11.1631 17.4994C12.6095 19.5763 14.6474 20.7022 16.5019 20.7022C17.6145 20.7022 17.7522 20.4521 17.7522 20.0214V18.4516C17.7522 17.9515 17.8576 17.8517 18.2099 17.8517C18.4695 17.8517 18.9146 17.9815 19.9531 18.9829C21.1399 20.1697 21.3356 20.7022 22.0032 20.7022H23.7536C24.2537 20.7022 24.5037 20.4521 24.3595 19.9586C24.2016 19.4668 23.635 18.7532 22.8831 17.9073C22.4751 17.4252 21.8631 16.906 21.6777 16.6463C21.4181 16.3125 21.4923 16.1642 21.6777 15.8675C21.6777 15.8675 23.8103 12.8633 24.0328 11.8434Z" fill="#3C5997"/>
</svg>
